<?xml version="1.0" standalone="no"?>
<!DOCTYPE svg PUBLIC "-//W3C//DTD SVG 20010904//EN"
 "http://www.w3.org/TR/2001/REC-SVG-20010904/DTD/svg10.dtd">
<svg version="1.0" xmlns="http://www.w3.org/2000/svg"
 width="201.000000pt" height="62.000000pt" viewBox="0 0 201.000000 62.000000"
 preserveAspectRatio="xMidYMid meet">

<g transform="translate(0.000000,62.000000) scale(0.100000,-0.100000)"
fill="#EA1D2C" stroke="none">
<path d="M1232 494 c-12 -8 -29 -28 -37 -45 -9 -16 -22 -29 -30 -29 -17 0 -20
-37 -4 -42 8 -3 5 -35 -10 -107 -11 -57 -21 -105 -21 -107 0 -2 15 -4 34 -4
38 0 34 -9 66 158 12 58 14 62 40 62 19 0 29 6 33 20 4 16 0 20 -20 20 -20 0
-24 4 -21 23 2 17 11 23 38 25 34 4 53 18 44 34 -9 14 -89 9 -112 -8z"/>
<path d="M1927 493 c-3 -10 -8 -30 -11 -45 -5 -24 -11 -28 -41 -28 -70 0 -154
-116 -127 -175 9 -20 19 -25 51 -25 22 0 44 6 51 15 16 19 31 19 24 0 -5 -12
2 -15 29 -15 41 0 37 -8 67 145 12 61 24 118 26 128 4 14 -1 17 -30 17 -25 0
-36 -5 -39 -17z"/>
<path d="M445 490 c-67 -14 -95 -44 -95 -99 0 -42 19 -58 103 -85 21 -7 22
-42 1 -50 -26 -10 -46 -7 -65 10 -16 14 -23 15 -49 4 -20 -8 -29 -18 -26 -27
4 -8 6 -16 6 -19 0 -11 64 -34 95 -34 75 0 135 51 135 114 0 28 -41 65 -82 73
-31 6 -53 27 -43 43 8 13 50 13 73 -1 21 -13 72 4 72 25 0 32 -70 58 -125 46z"/>
<path d="M105 468 c-3 -13 -16 -78 -28 -146 l-24 -123 36 3 c34 3 36 5 45 51
l8 47 63 0 c62 0 63 0 67 30 l5 30 -59 0 c-58 0 -58 0 -58 30 l0 30 70 0 c66
0 71 1 80 26 6 14 10 30 10 35 0 5 -46 9 -105 9 -100 0 -105 -1 -110 -22z"/>
<path d="M614 468 c3 -13 6 -78 6 -145 l0 -123 43 0 43 0 34 70 c19 39 37 70
42 70 4 0 8 -15 8 -32 0 -18 3 -50 6 -70 6 -37 8 -38 48 -38 l41 0 52 128 c29
70 55 135 59 145 6 16 2 18 -27 15 -32 -3 -35 -7 -70 -90 -19 -48 -38 -90 -41
-94 -3 -3 -9 29 -13 70 l-7 76 -34 0 c-32 0 -36 -4 -73 -77 l-40 -78 -1 98 0
97 -41 0 c-38 0 -41 -2 -35 -22z"/>
<path d="M1375 415 c-22 -8 -41 -15 -42 -15 -1 0 -14 -17 -28 -37 -52 -77 -25
-143 58 -143 64 0 118 39 138 97 16 50 4 82 -36 99 -41 17 -40 17 -90 -1z"/>
<path d="M1622 420 c-57 -13 -112 -82 -112 -140 0 -35 35 -60 86 -60 55 0 101
25 127 69 50 84 -4 153 -101 131z"/>
<path d="M1568 144 c32 -22 28 -31 -27 -59 -96 -48 -181 -42 -246 19 -39 37
-41 37 -20 -3 19 -38 66 -77 111 -91 54 -18 145 -7 200 24 47 26 64 26 64 0 0
-31 18 -3 24 38 4 24 9 53 13 66 5 21 3 22 -68 22 -69 0 -72 -1 -51 -16z"/>
</g>
</svg>
